<svg width="668" height="167" viewBox="0 0 668 167" fill="none" xmlns="http://www.w3.org/2000/svg">
<path d="M133.351 83.47C133.36 89.6704 131.356 95.7062 127.641 100.67L121.441 106.8L107.441 120.62L104.721 123.39L91.6409 136.32C91.6298 136.344 91.6126 136.365 91.5909 136.38C91.5909 136.38 91.5909 136.38 91.5309 136.43V136.49L79.4109 148.49C73.2138 153.524 66.3944 157.738 59.1209 161.03C58.2709 161.42 57.3909 161.78 56.5309 162.15C58.1775 160.957 59.7842 159.723 61.3509 158.45C76.3145 146.182 87.1381 129.604 92.3509 110.97C92.4709 110.56 92.5809 110.16 92.6709 109.75C97.2083 92.6234 96.8375 74.5659 91.6009 57.64C91.5309 57.39 91.4509 57.13 91.3609 56.87C87.3818 44.4327 80.8648 32.9565 72.2221 23.1674C63.5795 13.3784 52.9993 5.48958 41.1509 0H41.4909C55.4613 3.09988 68.502 9.45578 79.5509 18.55L79.6309 18.61L91.6309 30.44V30.49C91.6355 30.5097 91.6355 30.5303 91.6309 30.55L104.781 43.55L107.511 46.24L121.511 60.12H121.561L127.631 66.12C131.383 71.1225 133.392 77.2169 133.351 83.47Z" fill="#1C70B9"/>
<path d="M95.711 85.59C95.7161 93.7559 94.6572 101.888 92.561 109.78C92.471 110.19 92.361 110.59 92.241 111C87.0282 129.634 76.2046 146.212 61.241 158.48C69.5052 148.311 74.4116 135.829 75.2838 122.754C76.1561 109.68 72.9512 96.6566 66.111 85.48C65.7357 84.8754 65.2891 84.3181 64.7809 83.82L64.4109 83.46L45.5709 64.82L4.09097 23.82C2.67866 22.4004 1.58998 20.6923 0.89956 18.8126C0.209143 16.9329 -0.0666814 14.9262 0.0909665 12.93C0.424704 9.3746 2.08392 6.07492 4.73889 3.68674C7.39385 1.29857 10.8502 -0.00326854 14.421 0.0399847H41.091C52.9394 5.52957 63.5195 13.4184 72.1622 23.2074C80.8048 32.9965 87.3219 44.4726 91.301 56.91C91.391 57.17 91.4709 57.43 91.5409 57.68C94.3311 66.7197 95.737 76.1296 95.711 85.59Z" fill="#009FE3"/>
<path d="M75.4108 118.55C75.4363 133.098 70.426 147.206 61.2308 158.48C59.6708 159.76 58.0641 160.993 56.4108 162.18C51.7898 164.089 47.0206 165.617 42.1508 166.75H14.3208C10.7071 166.787 7.21535 165.444 4.55797 162.995C1.9006 160.546 0.27787 157.175 0.0208334 153.57C-0.146773 150.516 0.700577 147.492 2.43084 144.97C2.82825 144.416 3.27689 143.9 3.77083 143.43L5.35082 141.87L64.3508 83.49L64.8908 84.02C65.2747 84.4047 65.6105 84.8345 65.8908 85.3C72.1078 95.2764 75.4058 106.795 75.4108 118.55Z" fill="#58DEFA"/>
<path d="M207.771 67.92C207.371 63.92 205.911 60.92 203.391 58.92C200.871 56.92 197.088 55.92 192.041 55.92C182.741 55.92 178.074 59.1134 178.041 65.5C178.031 66.6164 178.288 67.719 178.791 68.7158C179.293 69.7125 180.027 70.5746 180.931 71.23C182.871 72.77 185.968 74.0534 190.221 75.08C195.261 76.26 199.634 77.3634 203.341 78.39C206.81 79.3307 210.208 80.5136 213.511 81.93C215.24 82.6386 216.886 83.5339 218.421 84.6C219.962 85.6746 221.286 87.032 222.321 88.6C223.483 90.3475 224.36 92.268 224.921 94.29C225.617 96.8987 225.953 99.5903 225.921 102.29C225.981 105.808 225.145 109.284 223.491 112.39C221.93 115.29 219.752 117.813 217.111 119.78C214.259 121.873 211.055 123.438 207.651 124.4C203.923 125.474 200.06 126.009 196.181 125.99C184.754 125.99 176.161 123.783 170.401 119.37C164.641 114.957 161.608 108.413 161.301 99.74H177.141C177.123 101.607 177.561 103.449 178.416 105.108C179.272 106.767 180.52 108.193 182.051 109.26C185.57 111.688 189.779 112.912 194.051 112.75C199.251 112.75 203.191 111.803 205.871 109.91C207.135 109.073 208.165 107.928 208.865 106.582C209.565 105.237 209.911 103.736 209.871 102.22C209.882 101.043 209.721 99.8702 209.391 98.74C209.048 97.6286 208.417 96.628 207.561 95.8401C206.466 94.8527 205.203 94.0703 203.831 93.5301C201.844 92.7343 199.789 92.1217 197.691 91.7C191.691 90.44 186.508 89.16 182.141 87.86C178.308 86.8055 174.659 85.1698 171.321 83.01C168.648 81.2731 166.484 78.8574 165.051 76.01C163.6 72.6987 162.917 69.1026 163.051 65.49C163.029 62.3691 163.631 59.2752 164.821 56.39C166.024 53.5311 167.889 50.9985 170.261 49C172.917 46.7776 175.971 45.0808 179.261 44C183.37 42.7019 187.663 42.0838 191.971 42.17C196.297 42.1105 200.606 42.7279 204.741 44C208.294 45.0999 211.606 46.8645 214.501 49.2C217.23 51.4121 219.425 54.2117 220.921 57.39C222.454 60.713 223.297 64.3121 223.401 67.97L207.771 67.92Z" fill="#1A2335"/>
<path d="M266.921 123.26V87.2C266.921 82.78 266.151 79.7701 264.611 78.1501C263.071 76.5301 260.531 75.73 256.981 75.73C255.223 75.6991 253.483 76.0828 251.901 76.85C250.424 77.5778 249.132 78.6309 248.121 79.9301C247.073 81.2665 246.289 82.7903 245.811 84.42C245.286 86.2058 245.027 88.0589 245.041 89.92V123.26H229.641V43.8H245.011V72.6501C245.625 71.2991 246.49 70.0773 247.561 69.05C248.739 67.8859 250.088 66.908 251.561 66.1501C253.148 65.3262 254.826 64.6918 256.561 64.26C258.416 63.7831 260.325 63.5445 262.241 63.55C268.241 63.55 273.108 65.1867 276.841 68.4601C280.574 71.7334 282.448 76.2834 282.461 82.11V123.26H266.921Z" fill="#1A2335"/>
<path d="M317.141 124.8C312.818 124.874 308.523 124.11 304.491 122.55C300.928 121.168 297.713 119.018 295.075 116.253C292.438 113.487 290.442 110.175 289.231 106.55C287.86 102.554 287.184 98.3538 287.231 94.13C287.18 89.8641 287.88 85.6226 289.301 81.6C290.589 77.9771 292.634 74.6703 295.301 71.9C297.959 69.1902 301.163 67.0768 304.701 65.7C308.684 64.1837 312.92 63.4404 317.181 63.51C321.384 63.4432 325.56 64.1867 329.481 65.7C333.008 67.0668 336.195 69.1869 338.819 71.9124C341.442 74.6378 343.439 77.903 344.671 81.48C346.097 85.5427 346.798 89.8246 346.741 94.13C346.802 98.4194 346.101 102.686 344.671 106.73C343.379 110.328 341.353 113.617 338.721 116.39C336.094 119.112 332.907 121.231 329.381 122.6C325.478 124.106 321.324 124.853 317.141 124.8ZM317.141 111.91C326.521 111.91 331.211 105.997 331.211 94.17C331.211 82.3433 326.521 76.4733 317.141 76.56C307.761 76.56 303.071 82.43 303.071 94.17C303.071 105.91 307.761 111.823 317.141 111.91Z" fill="#1A2335"/>
<path d="M351.661 150.81V65.09H366.441L366.561 72.18C370.114 66.4333 375.514 63.5567 382.761 63.55C386.262 63.5103 389.73 64.2373 392.921 65.68C396.027 67.0847 398.765 69.1897 400.921 71.83C403.254 74.7463 405.022 78.0736 406.131 81.64C407.415 85.8953 408.019 90.3264 407.921 94.77C407.966 98.8622 407.427 102.94 406.321 106.88C405.373 110.317 403.789 113.547 401.651 116.4C399.666 119.027 397.094 121.154 394.141 122.61C390.987 124.115 387.525 124.865 384.031 124.8C376.864 124.8 371.111 121.763 366.771 115.69V150.81H351.661ZM379.101 111.67C387.921 111.67 392.334 105.67 392.341 93.67C392.341 88.47 391.118 84.2333 388.671 80.96C387.62 79.4265 386.206 78.1761 384.556 77.3196C382.906 76.4631 381.07 76.027 379.211 76.05C377.407 76.0406 375.626 76.4557 374.012 77.2617C372.399 78.0678 370.997 79.2421 369.921 80.69C367.441 83.77 366.201 87.79 366.201 92.75C366.208 105.37 370.508 111.677 379.101 111.67Z" fill="#1A2335"/>
<path d="M413.271 58.11V43.8H428.641V58.11H413.271ZM413.271 123.26V65.0901H428.641V123.26H413.271Z" fill="#1A2335"/>
<path d="M435.141 123.26V65.09H449.571V72.09C450.646 70.3471 451.997 68.7902 453.571 67.48C454.857 66.4321 456.289 65.5765 457.821 64.94C459.24 64.3569 460.735 63.9797 462.261 63.82C463.792 63.6579 465.331 63.5778 466.871 63.58H468.871V79.3C467.463 79.0693 466.038 78.9522 464.611 78.95C455.231 78.95 450.541 83.64 450.541 93.02V123.29L435.141 123.26Z" fill="#1A2335"/>
<path d="M497.921 124.8C493.598 124.874 489.303 124.11 485.271 122.55C481.705 121.173 478.488 119.024 475.85 116.258C473.212 113.492 471.218 110.177 470.011 106.55C468.64 102.555 467.964 98.3538 468.011 94.13C467.96 89.8641 468.66 85.6227 470.081 81.6C471.369 77.9771 473.414 74.6703 476.081 71.9C478.737 69.1881 481.942 67.0743 485.481 65.7C489.454 64.2023 493.676 63.4728 497.921 63.55C502.12 63.4822 506.293 64.2258 510.211 65.74C513.74 67.1056 516.929 69.2251 519.554 71.9507C522.18 74.6762 524.178 77.942 525.411 81.52C526.837 85.5827 527.538 89.8646 527.481 94.17C527.542 98.4594 526.841 102.726 525.411 106.77C524.127 110.354 522.115 113.633 519.501 116.4C516.871 119.123 513.68 121.241 510.151 122.61C506.251 124.113 502.1 124.857 497.921 124.8ZM497.921 111.91C507.301 111.91 511.991 105.997 511.991 94.17C511.991 82.3433 507.301 76.4733 497.921 76.56C488.541 76.56 483.851 82.43 483.851 94.17C483.851 105.91 488.541 111.823 497.921 111.91Z" fill="#1A2335"/>
<path d="M532.451 123.26V43.8H547.831V123.26H532.451Z" fill="#1A2335"/>
<path d="M553.861 123.26V43.8H569.231V123.26H553.861Z" fill="#1A2335"/>
<path d="M589.331 98.19C589.564 102.61 590.844 106.12 593.171 108.72C594.317 110.004 595.732 111.019 597.315 111.693C598.899 112.367 600.611 112.684 602.331 112.62C604.675 112.667 606.987 112.076 609.021 110.91C609.93 110.402 610.728 109.716 611.368 108.893C612.007 108.07 612.474 107.127 612.741 106.12H628.581C627.079 111.663 623.749 116.536 619.131 119.95C614.424 123.246 608.785 124.946 603.041 124.8C583.654 124.8 573.961 114.237 573.961 93.11C573.905 88.9729 574.544 84.8558 575.851 80.93C577.014 77.4677 578.887 74.2865 581.351 71.59C583.795 68.9481 586.807 66.8964 590.161 65.59C593.973 64.1471 598.025 63.4445 602.101 63.52C611.081 63.52 617.878 66.3967 622.491 72.15C627.104 77.9034 629.411 86.57 629.411 98.15L589.331 98.19ZM613.571 88.5C613.531 86.5744 613.148 84.6714 612.441 82.88C611.839 81.3779 610.933 80.0161 609.781 78.88C608.704 77.8327 607.415 77.028 606.001 76.52C604.598 76.0063 603.115 75.7456 601.621 75.75C600.128 75.7344 598.647 76.0254 597.271 76.6051C595.895 77.1848 594.653 78.0408 593.621 79.12C591.381 81.36 590.101 84.4934 589.781 88.52L613.571 88.5Z" fill="#1A2335"/>
<path d="M634.141 123.26V65.09H648.571V72.09C649.646 70.3471 650.997 68.7902 652.571 67.48C653.857 66.4321 655.289 65.5765 656.821 64.94C658.24 64.3569 659.735 63.9797 661.261 63.82C662.792 63.6579 664.331 63.5778 665.871 63.58H667.871V79.3C666.463 79.0693 665.038 78.9522 663.611 78.95C654.231 78.95 649.541 83.64 649.541 93.02V123.29L634.141 123.26Z" fill="#1A2335"/>
</svg>
